<svg xmlns="http://www.w3.org/2000/svg" xmlns:xlink="http://www.w3.org/1999/xlink" width="1080" zoomAndPan="magnify" viewBox="0 0 810 809.999993" height="1080" preserveAspectRatio="xMidYMid meet" version="1.0"><defs><clipPath id="5d12c91aeb"><path d="M 138 4.457031 L 673 4.457031 L 673 805.625 L 138 805.625 Z M 138 4.457031 " clip-rule="nonzero"/></clipPath></defs><g clip-path="url(#5d12c91aeb)"><path fill="#ff865b" d="M 672.296875 538.730469 C 672.296875 686.019531 552.449219 805.863281 405.160156 805.863281 C 257.867188 805.863281 138.027344 686.019531 138.027344 538.730469 L 138.027344 468.273438 C 138.027344 441.859375 169.945312 428.636719 188.648438 447.304688 C 200.601562 459.058594 216.496094 474.714844 225.078125 488.472656 C 233.160156 497.355469 238.238281 509.074219 238.238281 522.03125 L 238.238281 538.730469 C 238.238281 630.789062 313.132812 705.6875 405.195312 705.6875 C 497.257812 705.6875 572.15625 630.789062 572.15625 538.730469 C 572.15625 477.890625 538.992188 421.789062 485.601562 392.375 C 403.894531 347.328125 355.109375 269.1875 355.109375 183.273438 L 355.109375 154.351562 C 334.9375 139.128906 321.714844 115.1875 321.714844 87.9375 C 321.714844 41.824219 359.082031 4.457031 405.195312 4.457031 C 451.304688 4.457031 488.675781 41.824219 488.675781 87.9375 C 488.675781 115.152344 475.449219 139.09375 455.285156 154.351562 L 455.285156 183.273438 C 455.285156 232.09375 484.699219 277.46875 533.953125 304.652344 C 619.304688 351.699219 672.332031 441.386719 672.332031 538.730469 Z M 672.296875 538.730469 " fill-opacity="1" fill-rule="nonzero"/></g></svg>