<?xml version="1.0" encoding="UTF-8"?>
<svg xmlns="http://www.w3.org/2000/svg" version="1.1" viewBox="0 0 1080 1080">
  <defs>
    <style>
      .cls-1, .cls-2, .cls-3, .cls-4, .cls-5, .cls-6, .cls-7, .cls-8, .cls-9, .cls-10 {
        stroke-linecap: round;
        stroke-linejoin: round;
      }

      .cls-1, .cls-2, .cls-6, .cls-9 {
        fill: none;
      }

      .cls-1, .cls-5, .cls-8 {
        stroke-width: 12.8px;
      }

      .cls-1, .cls-10 {
        stroke: #000;
      }

      .cls-2, .cls-3, .cls-4, .cls-5, .cls-7, .cls-8 {
        stroke: #212529;
      }

      .cls-2, .cls-9, .cls-10 {
        stroke-width: 17.1px;
      }

      .cls-3, .cls-6 {
        stroke-width: 8.6px;
      }

      .cls-3, .cls-11 {
        fill: #00bfa6;
      }

      .cls-4 {
        stroke-width: 25.7px;
      }

      .cls-4, .cls-5 {
        fill: #f8f9fa;
      }

      .cls-4, .cls-5, .cls-12, .cls-7, .cls-8, .cls-10, .cls-11 {
        fill-rule: evenodd;
      }

      .cls-13, .cls-12, .cls-7, .cls-8 {
        fill: #212529;
      }

      .cls-6, .cls-9 {
        stroke: #fff;
      }

      .cls-7 {
        stroke-width: 6.4px;
      }
    </style>
  </defs>
  <!-- Generator: Adobe Illustrator 28.7.1, SVG Export Plug-In . SVG Version: 1.2.0 Build 142)  -->
  <g>
    <g id="Layer_1">
      <path class="cls-4" d="M548.3,223.8c188.7,0,341.7,152.9,341.7,341.7s16,53,7.8,85.3c-19.8,77.6-26.7,373.6-255.5,327.5-83.1-16.7-195.1-41.3-234.9-72.6-39.9-31.3-129.3-141.3-160.6-198.5-3.8.4-7.7.6-11.7.6-62.9,0-113.9-51-113.9-113.9s41.5-103.8,95.8-112.5c37.4-148.1,171.5-257.6,331.3-257.6h-.1ZM212.2,573.4l11.8,44"/>
      <path class="cls-7" d="M707.8,481.4s31.1,76.1,41.3,89.7c4.3,5.7,29.7,26,28.1,43.5-3.9,42-69.4,43.8-69.4,43.8,0,0,79.7,7.3,79.7-43.8s-18.5-30.7-37-47.8c-10.1-9.3-42.7-85.5-42.7-85.5Z"/>
      <path class="cls-2" d="M572.6,764.8c38.9,9.5,72.1,14.2,99.7,14.2s51.2-4.7,71.2-14.2"/>
      <path d="M625.5,450.9c0,.9,0,1.9-.1,2.8,0,.9-.2,1.8-.4,2.8-.2.9-.4,1.8-.7,2.7s-.6,1.8-.9,2.6c-.4.9-.8,1.7-1.2,2.5-.4.8-.9,1.6-1.4,2.4-.5.8-1.1,1.5-1.7,2.2-.6.7-1.2,1.4-1.9,2.1s-1.3,1.3-2.1,1.9c-.7.6-1.5,1.1-2.2,1.7-.8.5-1.6,1-2.4,1.4-.8.4-1.7.8-2.5,1.2-.9.4-1.7.7-2.6.9-.9.3-1.8.5-2.7.7-.9.2-1.8.3-2.8.4-.9,0-1.9.1-2.8.1s-1.9,0-2.8-.1c-.9,0-1.8-.2-2.8-.4-.9-.2-1.8-.4-2.7-.7-.9-.3-1.8-.6-2.6-.9-.9-.4-1.7-.8-2.5-1.2-.8-.4-1.6-.9-2.4-1.4-.8-.5-1.5-1.1-2.2-1.7-.7-.6-1.4-1.2-2.1-1.9s-1.3-1.3-1.9-2.1c-.6-.7-1.1-1.5-1.7-2.2-.5-.8-1-1.6-1.4-2.4-.4-.8-.8-1.7-1.2-2.5-.4-.9-.7-1.7-.9-2.6s-.5-1.8-.7-2.7c-.2-.9-.3-1.8-.4-2.8,0-.9-.1-1.9-.1-2.8s0-1.9.1-2.8c0-.9.2-1.8.4-2.8s.4-1.8.7-2.7.6-1.8.9-2.6c.4-.9.8-1.7,1.2-2.5.4-.8.9-1.6,1.4-2.4.5-.8,1.1-1.5,1.7-2.2.6-.7,1.2-1.4,1.9-2.1s1.3-1.3,2.1-1.9c.7-.6,1.5-1.1,2.2-1.7.8-.5,1.6-1,2.4-1.4.8-.4,1.7-.8,2.5-1.2.9-.4,1.7-.7,2.6-.9.9-.3,1.8-.5,2.7-.7.9-.2,1.8-.3,2.8-.4.9,0,1.9-.1,2.8-.1s1.9,0,2.8.1c.9,0,1.8.2,2.8.4.9.2,1.8.4,2.7.7.9.3,1.8.6,2.6.9.9.4,1.7.8,2.5,1.2.8.4,1.6.9,2.4,1.4.8.5,1.5,1.1,2.2,1.7.7.6,1.4,1.2,2.1,1.9s1.3,1.3,1.9,2.1c.6.7,1.1,1.5,1.7,2.2.5.8,1,1.6,1.4,2.4s.8,1.7,1.2,2.5c.4.9.7,1.7.9,2.6s.5,1.8.7,2.7.3,1.8.4,2.8c0,.9.1,1.9.1,2.8Z"/>
      <path class="cls-1" d="M528.4,454.5c22.8-18.9,45.6-28.4,68.3-28.4s45.6,9.5,68.3,28.4"/>
      <path d="M832.7,450.9c0,.9,0,1.9-.1,2.8,0,.9-.2,1.8-.4,2.8-.2.9-.4,1.8-.7,2.7s-.6,1.8-.9,2.6c-.4.9-.8,1.7-1.2,2.5-.4.8-.9,1.6-1.4,2.4-.5.8-1.1,1.5-1.7,2.2-.6.7-1.2,1.4-1.9,2.1s-1.3,1.3-2.1,1.9c-.7.6-1.5,1.1-2.2,1.7-.8.5-1.6,1-2.4,1.4-.8.4-1.7.8-2.5,1.2-.9.4-1.7.7-2.6.9-.9.3-1.8.5-2.7.7-.9.2-1.8.3-2.8.4-.9,0-1.9.1-2.8.1s-1.9,0-2.8-.1c-.9,0-1.8-.2-2.8-.4-.9-.2-1.8-.4-2.7-.7-.9-.3-1.8-.6-2.6-.9-.9-.4-1.7-.8-2.5-1.2-.8-.4-1.6-.9-2.4-1.4-.8-.5-1.5-1.1-2.2-1.7-.7-.6-1.4-1.2-2.1-1.9-.7-.7-1.3-1.3-1.9-2.1-.6-.7-1.1-1.5-1.7-2.2-.5-.8-1-1.6-1.4-2.4-.4-.8-.8-1.7-1.2-2.5-.4-.9-.7-1.7-.9-2.6s-.5-1.8-.7-2.7c-.2-.9-.3-1.8-.4-2.8s-.1-1.9-.1-2.8,0-1.9.1-2.8.2-1.8.4-2.8.4-1.8.7-2.7.6-1.8.9-2.6c.4-.9.8-1.7,1.2-2.5.4-.8.9-1.6,1.4-2.4.5-.8,1.1-1.5,1.7-2.2.6-.7,1.2-1.4,1.9-2.1.7-.7,1.3-1.3,2.1-1.9.7-.6,1.5-1.1,2.2-1.7s1.6-1,2.4-1.4c.8-.4,1.7-.8,2.5-1.2.9-.4,1.7-.7,2.6-.9s1.8-.5,2.7-.7c.9-.2,1.8-.3,2.8-.4.9,0,1.9-.1,2.8-.1s1.9,0,2.8.1c.9,0,1.8.2,2.8.4.9.2,1.8.4,2.7.7.9.3,1.8.6,2.6.9.9.4,1.7.8,2.5,1.2.8.4,1.6.9,2.4,1.4.8.5,1.5,1.1,2.2,1.7.7.6,1.4,1.2,2.1,1.9s1.3,1.3,1.9,2.1c.6.7,1.1,1.5,1.7,2.2.5.8,1,1.6,1.4,2.4s.8,1.7,1.2,2.5c.4.9.7,1.7.9,2.6s.5,1.8.7,2.7.3,1.8.4,2.8c0,.9.1,1.9.1,2.8Z"/>
      <path class="cls-1" d="M872.9,454.5c-22.8-18.9-45.6-28.4-68.3-28.4s-45.6,9.5-68.3,28.4"/>
      <path class="cls-10" d="M602.4,375.7c29.3,4.4,50.7,13.2,64.1,26.3-21.4-8-42.7-12-64.1-12s-47.5,4-78.3,12l14.2-19.1c13.4-9.2,34.8-11.6,64.1-7.2ZM798.9,375.7c29.3-4.4,50.7-2,64.1,7.2l14.2,19.1c-30.8-8-56.9-12-78.3-12s-42.7,4-64.1,12c13.4-13.2,34.8-21.9,64.1-26.3Z"/>
      <path class="cls-5" d="M937.3,396.4c.9-12.7-9.3-23.1-22-23.1h-476.5c-12.6,0-22.8,10.2-22.8,22.8v107.9c0,7.1,3.2,13.7,8.9,17.9,29.4,21.5,124.9,87.9,186.1,87.9s62.4-87.8,128.7-87.8,35.1,87.8,115.1,74.2c63.5-10.7,79-144.9,82.7-199.8h-.1Z"/>
      <path class="cls-11" d="M906.6,410.3c.3-6.4-4.7-11.6-11.1-11.6h-442.4c-6.3,0-11.3,5.1-11.3,11.3v73.4c0,3.4,1.5,6.6,4.2,8.8,20.9,16.3,114.3,86.8,171.7,86.8s32.5-78.3,116-85.3c83.5-7.2,60.6,78.3,115.1,73.6,45.7-4,55.8-119.4,58-156.8v-.2Z"/>
      <path class="cls-9" d="M747.3,385.7l155.8,125.4"/>
      <path class="cls-6" d="M782.4,366.1l155.8,125.5"/>
      <path class="cls-8" d="M415.9,384.7l-220.6,44.1v62.5l220.6-21.2v-85.3Z"/>
      <path class="cls-8" d="M700.7,79c40.4,13,81.2,29.4,92.5,83.5,9.7,46.3,9.9,59.8-21.4,156.6-9.5-21.8-56.5-34.2-141-37-41.1-1.4-88.2-22.9-135.3-19.9-35,2.1-89.8,20.9-164.7,56.3l1.1,4.5c11.7,48.3,17.5,80.6,17.5,96.9s-11,74.7-33.2,176.9l-4.3,19.9-53.9-128.3h-58.3c-21.9-81.3-27.1-136.9-15.7-166.9,11.4-30.1,28.4-51.7,51.1-64.8,27.1-49.8,225.4-104.9,259.2-110.7,2.3-.4,4.7-.7,6.8-1.1l2.1-1.3c11.6-6.8,19.3-12.3,27.7-17.8-39.4,4.3-96.7,22.7-172.2,55.4,68-44.5,129.9-67.3,185.8-68.4h9.8c2.9-1.4,6-2.8,9.4-4.3,8.4-3.6,18.6-6.6,30.1-8.7-39.2-3-101.9,8.2-187.8,33.6,72.9-35.8,137.1-51,192.7-45.3,14.7,1.5,27.8,4.2,39.4,8.1,33.4,0,69.5,5.6,98.9,17.4-10.6-9.6-22.8-16.9-36.5-21.7-36.7-13.2-102.6-15.9-197.9-8.6,78.8-19.9,144.7-21.4,197.9-4.3h-.1Z"/>
      <path class="cls-3" d="M200.5,621.4c-15.6-15.6-15.6-40.9,0-56.4,15.6-15.6,40.9-15.6,56.4,0,14.2,14.2,15.4,36.5,3.7,52.1l45.8,45.8c6.8,6.8,6.8,18.1,0,24.9-6.8,6.8-18.1,6.8-24.9,0l-54.9-54.9c-9.5-.5-18.8-4.4-26.1-11.7h0Z"/>
      <path d="M207.8,575.5c-2.2,2.2-2.2,5.9,0,8l8,8c2.3,2.2,5.9,2.2,8,0,2.3-2.2,2.3-5.9,0-8l-8-8c-2.2-2.2-5.9-2.2-8,0Z"/>
      <path class="cls-12" d="M317.4,601.1c33.3,116.5,71.2,180.1,113.9,190.8,64.1,16,69.7-66.9,118.2-94,48.4-27.1,129.5,4.3,180.9,4.3s140.8-20.3,159.5-14.2c18.6,6.1,16.2,188.6-66.9,276.3-44,39.4-61.8,39.3-143.7,39.9-82,.6-201.7-17.5-301.8-99.7-66.7-54.8-91.4-155.8-74-303.2h14.2-.1ZM575,715c-24.6,17.8-70.2,85.9-45.6,105.3s109.2-2.9,163.7-2.9,112.8,11.7,121.1,2.9,4.3-78.3-18.5-95.4c-22.8-17.1-69.8,7.2-95.4,7.2s-100.7-34.8-125.2-17.1h-.1Z"/>
      <path class="cls-13" d="M317.4,601.1l8.2-2.4c-1.1-3.6-4.4-6.2-8.2-6.2v8.6ZM431.3,791.8l-2,8.2,2-8.2ZM822.7,964.1l5.7,6.3c.2-.1.3-.3.5-.5l-6.2-5.9h0ZM377.2,904.3l-5.5,6.6,5.5-6.6ZM303.2,601.1v-8.6c-4.3,0-8,3.2-8.4,7.6l8.4,1ZM700.4,732v-8.6,8.6ZM309.2,603.4c16.7,58.6,34.8,104.4,54.3,137.1,19.4,32.5,41.1,53.5,65.8,59.7l4.2-16.6c-18.1-4.5-36.7-20.8-55.2-51.8-18.4-30.9-36-75.1-52.5-133l-16.5,4.7h-.1ZM429.2,800.1c18,4.5,32.6,2.1,45-5,12-7,21.1-18,29-29.2,4-5.7,7.8-11.8,11.7-17.5,3.8-5.9,7.6-11.7,11.7-17.1,8-10.9,16.6-20.1,27.2-26l-8.3-14.9c-13.7,7.6-24,19-32.6,30.7-4.4,5.9-8.3,12-12.2,18-3.9,6-7.5,11.7-11.2,17-7.6,10.8-15,19.3-23.5,24.2-8.2,4.7-18.3,6.7-32.3,3.2l-4.2,16.6h-.1ZM553.7,705.4c21.5-12,51.2-11.4,84.1-7.1,16.3,2.3,32.3,5.2,48.2,7.8,15.6,2.6,30.9,4.6,44.4,4.6v-17.1c-12.1,0-26.2-1.8-41.7-4.4-15.3-2.5-32.1-5.6-48.7-7.8-32.7-4.5-67.7-6-94.7,9l8.3,14.9h0ZM730.2,710.7c26.4,0,62.2-5.2,93.2-9.5,15.6-2.1,29.9-4.1,41.5-5.1,5.8-.5,10.7-.7,14.7-.7s6.5.4,7.5.7l5.3-16.3c-3.6-1.2-8.2-1.5-12.7-1.6-4.7,0-10.3.3-16.3.9-12.1,1.1-26.8,3.1-42.3,5.2-31.4,4.4-65.9,9.3-90.8,9.3v17.1ZM887,696.1c-1.8-.5-2-1.7-1.5-.6.4.8,1.1,2.4,1.8,4.8,1.3,4.9,2.4,12.3,2.9,21.6,1.1,18.6,0,44.2-4.3,72.4-8.6,56.7-29.6,122.1-69.3,164.1l12.4,11.8c43.3-45.7,65-115.3,73.8-173.3,4.4-29.2,5.7-55.8,4.5-75.9-.5-9.9-1.7-18.6-3.5-25.1-.9-3.2-2-6.3-3.5-9-1.4-2.4-3.9-5.7-7.9-7l-5.3,16.3ZM817.1,957.8c-21.5,19.3-35.7,28-53.9,32.5-19,4.7-42.8,4.8-84.2,5.1v17.1c40.6-.3,66.8-.4,88.3-5.7,22.1-5.5,38.8-16.3,61.3-36.4l-11.4-12.7h-.1ZM678.9,995.4c-81,.6-198.4-17.3-296.4-97.8l-10.8,13.2c102.2,84,224.2,102.2,307.3,101.6v-17.1h-.1ZM382.6,897.7c-63.2-51.9-88.2-149.1-71-295.6l-17-2c-17.4,148.2,6.8,253.3,77.1,310.9l10.8-13.2h.1ZM303.2,609.6h14.2v-17.1h-14.2v17.1ZM570.1,708c-13.7,9.8-32,32.5-43.7,55-5.9,11.2-10.6,23.2-12,34s.3,22.5,9.8,29.9l10.6-13.4c-2.8-2.1-4.6-6.4-3.5-14.4,1.1-8,4.7-17.9,10.2-28.2,11-21,27.8-41.2,38.6-49.1l-9.9-13.9h0ZM524.2,827c8.3,6.6,20.5,9,33.2,9.6,12.9.6,28-.3,43.6-1.9,31.9-3.2,65.6-8.7,92.2-8.7v-17.1c-27.8,0-63.7,5.7-93.9,8.8-15.4,1.6-29.5,2.5-41.1,1.8-11.9-.6-19.5-2.8-23.4-5.9l-10.6,13.4ZM693.2,826c26.8,0,54.4,2.9,77.2,4.7,11.2.9,21.4,1.6,29.3,1.4,4,0,7.7-.3,11-1.1,3-.6,7-1.8,9.8-5l-12.5-11.7c.9-.9,1.2-.5-.9-.1-1.7.3-4.3.6-7.8.6-7,.1-16.4-.4-27.6-1.4-22.1-1.8-50.9-4.8-78.6-4.8v17.3ZM820.5,826.1c2.7-2.9,3.8-6.8,4.6-9.8.8-3.4,1.3-7.4,1.5-11.8.4-8.7,0-19.3-1.5-29.9-1.5-10.7-4-21.9-7.7-31.8-3.6-9.6-8.9-18.9-16.5-24.7l-10.3,13.7c3.7,2.8,7.6,8.6,10.8,17.1,3.1,8.2,5.3,18.2,6.7,28,1.4,9.8,1.7,19.4,1.4,26.7-.2,3.7-.5,6.7-1.1,8.9-.5,2.6-1.1,2.7-.4,2l12.5,11.7h-.1ZM800.8,718.1c-7.7-5.8-16.9-7.7-25.9-7.8-9-.1-18.6,1.4-27.7,3.4-8.9,1.9-18.5,4.6-26.4,6.5-8.3,2-15.2,3.3-20.4,3.3v17.1c7.5,0,16-1.7,24.5-3.7,8.9-2.1,17.2-4.5,26.1-6.4,8.7-1.9,16.8-3.2,23.7-3.1,7.1.1,12.2,1.6,15.9,4.4l10.3-13.7h-.1ZM700.4,723.5c-5,0-13.5-1.8-24.6-4.8-10.6-2.9-23.7-6.8-36.1-10.1-12.6-3.3-25.8-6.1-37.4-6.9-11.3-.9-23.3.1-32,6.4l9.9,13.9c3.6-2.6,10.3-4,20.7-3.2,10.1.8,22,3.2,34.4,6.4,12.6,3.2,24.5,6.8,36,9.9,10.8,2.9,21.4,5.5,29.1,5.5v-17.1h-.1Z"/>
      <ellipse class="cls-13" cx="643.2" cy="116.9" rx="57.2" ry="37.6"/>
      <circle class="cls-13" cx="493.6" cy="139.4" r="33.4"/>
    </g>
  </g>
</svg>